<svg id="认证" xmlns="http://www.w3.org/2000/svg" width="16" height="16" viewBox="0 0 16 16"><g id="认证2"><rect id="矩形" width="16" height="16" opacity="0"/><path id="路径" d="M6.146,14.167a1.045,1.045,0,0,1-1.561-.418,1.777,1.777,0,0,0-1.793-1.035,1.045,1.045,0,0,1-1.142-1.143A1.777,1.777,0,0,0,.614,9.777,1.045,1.045,0,0,1,.2,8.217a1.777,1.777,0,0,0,0-2.07A1.045,1.045,0,0,1,.614,4.585,1.777,1.777,0,0,0,1.649,2.792,1.045,1.045,0,0,1,2.792,1.649,1.777,1.777,0,0,0,4.585.614,1.045,1.045,0,0,1,6.146.2a1.777,1.777,0,0,0,2.07,0A1.045,1.045,0,0,1,9.777.614a1.777,1.777,0,0,0,1.793,1.035,1.045,1.045,0,0,1,1.142,1.143,1.777,1.777,0,0,0,1.036,1.793,1.045,1.045,0,0,1,.418,1.561,1.777,1.777,0,0,0,0,2.07,1.045,1.045,0,0,1-.418,1.561,1.777,1.777,0,0,0-1.035,1.793,1.045,1.045,0,0,1-1.143,1.142,1.777,1.777,0,0,0-1.793,1.036,1.045,1.045,0,0,1-1.561.418,1.777,1.777,0,0,0-2.07,0Z" transform="translate(0.819 0.819)" fill="#f8c200"/><path id="路径-2" data-name="路径" d="M2.029,0V.2a.324.324,0,0,0-.153.039A.154.154,0,0,0,1.8.388.724.724,0,0,0,1.9.7l.106.21.126.255L3.582,4.21,5,1.208q.109-.23.207-.422L5.254.692A.86.86,0,0,0,5.373.377Q5.373.213,5.1.2H5.056V0H7.04V.2A.36.36,0,0,0,6.711.36q-.069.106-.127.218L4.5,5.07a.64.64,0,0,1-.58.37H3.19a.64.64,0,0,1-.579-.368L.453.487A.372.372,0,0,0,.295.31,1.339,1.339,0,0,0,.062.218L0,.2V0Z" transform="translate(4.48 5.76)" fill="#fff"/></g></svg>
